<svg width="20" height="20" viewBox="0 0 20 20" fill="none" xmlns="http://www.w3.org/2000/svg">
<path fill-rule="evenodd" clip-rule="evenodd" d="M12.2392 10L19.0365 3.20275C19.6556 2.58367 19.6556 1.583 19.0365 0.963916C18.4174 0.344832 17.4167 0.344832 16.7976 0.963916L10.0004 7.76117L3.20315 0.963916C2.58406 0.344832 1.5834 0.344832 0.964312 0.963916C0.345229 1.583 0.345229 2.58367 0.964312 3.20275L7.76156 10L0.964312 16.7972C0.345229 17.4163 0.345229 18.417 0.964312 19.0361C1.27306 19.3448 1.6784 19.5 2.08373 19.5C2.48906 19.5 2.8944 19.3448 3.20315 19.0361L10.0004 12.2388L16.7976 19.0361C17.1064 19.3448 17.5117 19.5 17.9171 19.5C18.3224 19.5 18.7277 19.3448 19.0365 19.0361C19.6556 18.417 19.6556 17.4163 19.0365 16.7972L12.2392 10Z" fill="#2E3A59"/>
</svg>
