<svg width="37" height="37" viewBox="0 0 37 37" fill="none" xmlns="http://www.w3.org/2000/svg">
<path fill-rule="evenodd" clip-rule="evenodd" d="M29.2917 16.9583H20.0417V7.70832C20.0417 6.85578 19.351 6.16666 18.5 6.16666C17.649 6.16666 16.9583 6.85578 16.9583 7.70832V16.9583H7.70832C6.85732 16.9583 6.16666 17.6474 6.16666 18.5C6.16666 19.3525 6.85732 20.0417 7.70832 20.0417H16.9583V29.2917C16.9583 30.1442 17.649 30.8333 18.5 30.8333C19.351 30.8333 20.0417 30.1442 20.0417 29.2917V20.0417H29.2917C30.1427 20.0417 30.8333 19.3525 30.8333 18.5C30.8333 17.6474 30.1427 16.9583 29.2917 16.9583Z" fill="white"/>
</svg>
